<svg width="17" height="20" viewBox="0 0 17 20" fill="none" xmlns="http://www.w3.org/2000/svg">
<path d="M10.8382 2.43168C11.4402 1.78716 11.8475 0.892316 11.736 0C10.8687 0.0309531 9.81746 0.509134 9.19489 1.15361C8.6368 1.72415 8.14819 2.63601 8.27859 3.51082C9.24642 3.57629 10.2352 3.07517 10.8382 2.43168ZM12.6853 8.59404C12.6668 6.59356 14.2692 5.63275 14.3401 5.58632C13.4393 4.22784 12.0364 4.04196 11.5367 4.02099C10.3421 3.89559 9.20745 4.74444 8.60096 4.74444C7.99694 4.74444 7.06264 4.03746 6.07186 4.05645C4.76936 4.0779 3.56922 4.83636 2.90027 6.03843C1.54722 8.45667 2.55347 12.0389 3.87194 14.0005C4.51647 14.9607 5.28388 16.0379 6.29161 15.999C7.26438 15.96 7.6311 15.352 8.80473 15.352C9.97887 15.352 10.3076 15.999 11.3348 15.9795C12.38 15.96 13.0415 15.0007 13.6806 14.0374C14.42 12.9238 14.7248 11.8456 14.7422 11.7911C14.7198 11.7781 12.7068 10.9863 12.6853 8.59404Z" fill="#131313"/>
</svg>
