<svg width="16" height="16" viewBox="0 0 16 16" fill="none" xmlns="http://www.w3.org/2000/svg">
<path d="M6.46992 8.82657C6.41968 8.82657 5.36576 8.82689 4.87968 8.82641C4.62944 8.82625 4.54016 8.73633 4.54016 8.48449C4.53984 7.83761 4.53968 7.19073 4.54016 6.54385C4.54032 6.29521 4.63472 6.20033 4.88176 6.20017C5.36784 6.19985 6.416 6.20001 6.46992 6.20001C6.46992 6.15569 6.46976 5.22177 6.46992 4.79169C6.47024 4.15585 6.58368 3.54721 6.90672 2.98993C7.23744 2.41953 7.71872 2.02881 8.33552 1.80289C8.73056 1.65809 9.14064 1.60033 9.55984 1.60001C10.0843 1.59969 10.6088 1.60017 11.1334 1.60113C11.3589 1.60145 11.4589 1.70113 11.4594 1.92817C11.4603 2.53665 11.4603 3.14513 11.4594 3.75345C11.459 3.98289 11.3632 4.07505 11.1326 4.07761C10.7027 4.08225 10.2725 4.07937 9.84304 4.09665C9.40928 4.09665 9.18112 4.30849 9.18112 4.75745C9.17072 5.23233 9.1768 5.70769 9.1768 6.19985C9.21744 6.19985 10.4518 6.19969 11.0288 6.19985C11.2909 6.19985 11.3805 6.28993 11.3805 6.55345C11.3805 7.19681 11.3803 7.84033 11.3798 8.48369C11.3797 8.74337 11.2955 8.82625 11.0318 8.82641C10.4549 8.82673 9.22528 8.82657 9.17152 8.82657V14.0338C9.17152 14.3114 9.08416 14.3999 8.81024 14.3999C8.1424 14.3999 7.4744 14.4 6.80656 14.3999C6.56448 14.3999 6.47008 14.3058 6.47008 14.0637C6.46992 12.3679 6.46992 8.88609 6.46992 8.82657Z" fill="#3D6AD6"/>
</svg>
