<svg width="14" height="14" viewBox="0 0 14 14" fill="none" xmlns="http://www.w3.org/2000/svg">
<g clip-path="url(#clip0_1_241)">
<path d="M13.4714 5.7829L7.76094 5.78262C7.50878 5.78262 7.30438 5.98699 7.30438 6.23915V8.06339C7.30438 8.3155 7.50878 8.51992 7.76091 8.51992H10.9767C10.6246 9.43378 9.96734 10.1991 9.12881 10.6854L10.5 13.0591C12.6996 11.787 14 9.55491 14 7.05629C14 6.70053 13.9738 6.4462 13.9214 6.15983C13.8815 5.94226 13.6926 5.7829 13.4714 5.7829Z" fill="#167EE6"/>
<path d="M6.99999 11.2609C5.42625 11.2609 4.05239 10.401 3.31452 9.12863L0.940918 10.4967C2.14883 12.5902 4.41163 14 6.99999 14C8.26975 14 9.46788 13.6581 10.5 13.0623V13.0591L9.12879 10.6854C8.50157 11.0491 7.77576 11.2609 6.99999 11.2609Z" fill="#12B347"/>
<path d="M10.5 13.0623V13.0591L9.12879 10.6854C8.50158 11.0491 7.77582 11.2609 7 11.2609V14C8.26976 14 9.46794 13.6581 10.5 13.0623Z" fill="#0F993E"/>
<path d="M2.73913 7.00001C2.73913 6.2243 2.95083 5.49857 3.31453 4.87138L0.940926 3.50327C0.341852 4.53213 0 5.727 0 7.00001C0 8.27303 0.341852 9.46789 0.940926 10.4968L3.31453 9.12864C2.95083 8.50146 2.73913 7.77573 2.73913 7.00001Z" fill="#FFD500"/>
<path d="M6.99999 2.73913C8.02623 2.73913 8.96888 3.10379 9.70516 3.71036C9.88681 3.85998 10.1508 3.84918 10.3172 3.68279L11.6097 2.39025C11.7985 2.20147 11.7851 1.89246 11.5834 1.71752C10.3498 0.647309 8.74471 0 6.99999 0C4.41163 0 2.14883 1.40976 0.940918 3.50325L3.31452 4.87137C4.05239 3.59898 5.42625 2.73913 6.99999 2.73913Z" fill="#FF4B26"/>
<path d="M9.70517 3.71036C9.88682 3.85998 10.1508 3.84918 10.3172 3.68279L11.6097 2.39025C11.7985 2.20147 11.785 1.89246 11.5834 1.71752C10.3498 0.647281 8.74472 0 7 0V2.73913C8.02621 2.73913 8.96889 3.10379 9.70517 3.71036Z" fill="#D93F21"/>
</g>
<defs>
<clipPath id="clip0_1_241">
<rect width="14" height="14" fill="white"/>
</clipPath>
</defs>
</svg>
